<svg width="350" height="212" viewBox="0 0 350 212" fill="none" xmlns="http://www.w3.org/2000/svg">
<path fill-rule="evenodd" clip-rule="evenodd" d="M0.12886 164.84H11.4495C13.6952 164.84 15.3703 164.932 16.4747 165.153C17.5608 165.374 18.5548 165.834 19.4199 166.515C20.2851 167.196 21.0214 168.116 21.592 169.258C22.181 170.399 22.4571 171.669 22.4571 173.086C22.4571 174.614 22.1074 176.032 21.3895 177.32C20.6716 178.609 19.7144 179.566 18.4811 180.21C20.2114 180.781 21.5368 181.775 22.4571 183.174C23.3959 184.591 23.8561 186.229 23.8561 188.125C23.8561 189.616 23.5616 191.071 22.9541 192.488C22.3651 193.887 21.5368 195.01 20.5059 195.856C19.4751 196.703 18.1866 197.219 16.6588 197.421C15.72 197.532 13.4191 197.605 9.77438 197.642H0.12886V164.84ZM5.85359 170.288V177.872H9.59031C11.8176 177.872 13.2166 177.836 13.7504 177.762C14.726 177.633 15.4991 177.247 16.0513 176.602C16.622 175.94 16.8981 175.093 16.8981 174.025C16.8981 173.013 16.6588 172.184 16.1802 171.559C15.6832 170.914 14.9653 170.546 14.0265 170.399C13.4559 170.325 11.8176 170.288 9.13012 170.288H5.85359ZM5.85359 183.339V192.101H11.1365C13.1982 192.101 14.5051 192.046 15.0573 191.899C15.9225 191.733 16.6036 191.291 17.1374 190.592C17.6712 189.911 17.9473 188.972 17.9473 187.812C17.9473 186.818 17.7264 185.99 17.3215 185.309C16.9165 184.628 16.309 184.112 15.5359 183.8C14.7628 183.487 13.0693 183.339 10.4739 183.339H5.85359ZM28.6973 197.642V164.84H49.6818V170.381H34.4036V177.651H48.6326V183.174H34.4036V192.101H50.234V197.642H28.6973ZM55.2409 197.642V165.098H60.9472V192.101H75.1762V197.642H55.2409ZM81.085 197.642L74.3294 164.84H80.1646L84.4536 187.371L89.6261 164.84H96.4184L101.388 187.739L105.733 164.84H111.494L104.61 197.642H98.5537L92.9026 173.105L87.2883 197.642H81.085ZM113.261 181.443C113.261 178.093 113.685 175.295 114.55 173.013C115.194 171.356 116.078 169.847 117.182 168.521C118.305 167.196 119.52 166.22 120.845 165.576C122.612 164.711 124.637 164.269 126.956 164.269C131.117 164.269 134.467 165.779 136.97 168.779C139.474 171.761 140.725 175.94 140.725 181.278C140.725 186.579 139.474 190.721 136.989 193.703C134.504 196.703 131.19 198.194 127.03 198.194C122.815 198.194 119.465 196.703 116.98 193.74C114.495 190.758 113.261 186.653 113.261 181.443ZM119.152 181.223C119.152 184.922 119.888 187.739 121.361 189.653C122.852 191.586 124.729 192.525 127.012 192.525C129.294 192.525 131.153 191.586 132.626 189.672C134.08 187.776 134.816 184.922 134.816 181.13C134.816 177.357 134.099 174.559 132.681 172.7C131.264 170.859 129.368 169.939 127.012 169.939C124.656 169.939 122.741 170.878 121.305 172.737C119.87 174.614 119.133 177.431 119.152 181.223ZM144.039 181.443C144.039 178.093 144.462 175.295 145.327 173.013C145.971 171.356 146.855 169.847 147.959 168.521C149.082 167.196 150.297 166.22 151.622 165.576C153.39 164.711 155.414 164.269 157.734 164.269C161.912 164.269 165.244 165.779 167.747 168.779C170.251 171.761 171.503 175.94 171.503 181.278C171.503 186.579 170.251 190.721 167.766 193.703C165.281 196.703 161.967 198.194 157.807 198.194C153.592 198.194 150.242 196.703 147.757 193.74C145.272 190.758 144.039 186.653 144.039 181.443ZM149.929 181.223C149.929 184.922 150.665 187.739 152.138 189.653C153.629 191.586 155.506 192.525 157.789 192.525C160.072 192.525 161.931 191.586 163.403 189.672C164.857 187.776 165.594 184.922 165.594 181.13C165.594 177.357 164.876 174.559 163.459 172.7C162.041 170.859 160.145 169.939 157.789 169.939C155.433 169.939 153.537 170.878 152.083 172.737C150.647 174.614 149.929 177.431 149.929 181.223ZM175.957 164.84H186.394C188.75 164.84 190.554 165.042 191.788 165.466C193.444 166.018 194.88 167.03 196.058 168.485C197.236 169.92 198.157 171.706 198.764 173.786C199.39 175.884 199.684 178.48 199.684 181.554C199.684 184.241 199.408 186.579 198.819 188.53C198.12 190.905 197.107 192.838 195.782 194.329C194.806 195.452 193.463 196.317 191.769 196.943C190.518 197.403 188.824 197.642 186.707 197.642H175.957V164.84ZM181.664 170.381V192.101H185.934C187.535 192.101 188.677 192.009 189.395 191.788C190.315 191.531 191.088 191.071 191.714 190.426C192.321 189.782 192.818 188.733 193.205 187.26C193.592 185.806 193.776 183.781 193.776 181.259C193.776 178.719 193.592 176.768 193.205 175.424C192.818 174.062 192.266 172.994 191.585 172.24C190.886 171.485 190.002 170.97 188.934 170.693C188.125 170.491 186.56 170.381 184.241 170.381H181.664ZM204.526 164.84H214.981C217.337 164.84 219.123 165.042 220.374 165.466C222.031 166.018 223.449 167.03 224.627 168.485C225.823 169.92 226.725 171.706 227.351 173.786C227.958 175.884 228.271 178.48 228.271 181.554C228.271 184.241 227.977 186.579 227.388 188.53C226.688 190.905 225.676 192.838 224.369 194.329C223.375 195.452 222.031 196.317 220.356 196.943C219.086 197.403 217.392 197.642 215.276 197.642H204.526V164.84ZM210.25 170.381V192.101H214.502C216.104 192.101 217.264 192.009 217.981 191.788C218.902 191.531 219.675 191.071 220.282 190.426C220.89 189.782 221.387 188.733 221.773 187.26C222.16 185.806 222.362 183.781 222.362 181.259C222.362 178.719 222.16 176.768 221.773 175.424C221.387 174.062 220.853 172.994 220.154 172.24C219.454 171.485 218.571 170.97 217.503 170.693C216.711 170.491 215.147 170.381 212.809 170.381H210.25ZM231.953 181.443C231.953 178.093 232.395 175.295 233.26 173.013C233.904 171.356 234.769 169.847 235.892 168.521C236.996 167.196 238.23 166.22 239.555 165.576C241.322 164.711 243.347 164.269 245.666 164.269C249.826 164.269 253.177 165.779 255.68 168.779C258.183 171.761 259.435 175.94 259.435 181.278C259.435 186.579 258.183 190.721 255.698 193.703C253.213 196.703 249.9 198.194 245.74 198.194C241.525 198.194 238.174 196.703 235.689 193.74C233.204 190.758 231.953 186.653 231.953 181.443ZM237.843 181.223C237.843 184.922 238.598 187.739 240.07 189.653C241.561 191.586 243.439 192.525 245.722 192.525C247.986 192.525 249.863 191.586 251.336 189.672C252.79 187.776 253.526 184.922 253.526 181.13C253.526 177.357 252.808 174.559 251.391 172.7C249.974 170.859 248.078 169.939 245.722 169.939C243.365 169.939 241.451 170.878 240.015 172.737C238.579 174.614 237.843 177.431 237.843 181.223ZM262.73 181.443C262.73 178.093 263.172 175.295 264.037 173.013C264.681 171.356 265.546 169.847 266.669 168.521C267.792 167.196 269.007 166.22 270.332 165.576C272.099 164.711 274.124 164.269 276.444 164.269C280.604 164.269 283.954 165.779 286.457 168.779C288.961 171.761 290.212 175.94 290.212 181.278C290.212 186.579 288.961 190.721 286.476 193.703C283.991 196.703 280.677 198.194 276.517 198.194C272.302 198.194 268.952 196.703 266.467 193.74C263.982 190.758 262.73 186.653 262.73 181.443ZM268.62 181.223C268.62 184.922 269.375 187.739 270.848 189.653C272.339 191.586 274.216 192.525 276.499 192.525C278.763 192.525 280.641 191.586 282.113 189.672C283.567 187.776 284.304 184.922 284.304 181.13C284.304 177.357 283.586 174.559 282.168 172.7C280.751 170.859 278.855 169.939 276.499 169.939C274.143 169.939 272.228 170.878 270.793 172.737C269.357 174.614 268.62 177.431 268.62 181.223ZM294.685 197.642V164.84H306.724C309.761 164.84 311.952 165.134 313.332 165.723C314.694 166.312 315.799 167.343 316.627 168.853C317.456 170.362 317.861 172.092 317.861 174.025C317.861 176.492 317.235 178.517 315.983 180.136C314.731 181.72 312.872 182.75 310.387 183.155C311.62 184.002 312.651 184.904 313.443 185.916C314.253 186.91 315.339 188.678 316.701 191.236L320.161 197.642H313.314L309.191 190.5C307.718 187.941 306.706 186.34 306.172 185.677C305.638 185.014 305.049 184.554 304.46 184.315C303.852 184.057 302.895 183.947 301.57 183.947H300.41V197.642H294.685ZM300.41 178.701H304.644C307.387 178.701 309.099 178.572 309.78 178.296C310.461 178.038 310.995 177.578 311.381 176.915C311.768 176.253 311.97 175.443 311.97 174.449C311.97 173.344 311.712 172.461 311.197 171.779C310.7 171.098 309.982 170.675 309.043 170.491C308.583 170.417 307.203 170.381 304.865 170.381H300.41V178.701ZM321.8 186.966L327.377 186.34C327.69 188.493 328.371 190.095 329.402 191.107C330.433 192.12 331.813 192.617 333.544 192.617C335.384 192.617 336.783 192.175 337.704 191.273C338.643 190.371 339.121 189.303 339.121 188.107C339.121 187.315 338.919 186.671 338.514 186.119C338.127 185.567 337.446 185.107 336.47 184.702C335.789 184.425 334.262 183.965 331.887 183.266C328.813 182.382 326.678 181.315 325.444 180.026C323.696 178.222 322.831 176.013 322.831 173.418C322.831 171.761 323.236 170.196 324.045 168.742C324.874 167.288 326.052 166.184 327.58 165.41C329.126 164.656 330.985 164.269 333.157 164.269C336.728 164.269 339.397 165.171 341.183 166.975C342.987 168.779 343.926 171.19 344.018 174.209L338.311 174.504C338.054 172.81 337.538 171.595 336.728 170.859C335.918 170.123 334.722 169.755 333.102 169.755C331.445 169.755 330.138 170.141 329.2 170.951C328.592 171.448 328.298 172.129 328.298 172.976C328.298 173.749 328.574 174.412 329.144 174.964C329.862 175.663 331.611 176.4 334.39 177.154C337.188 177.928 339.232 178.701 340.575 179.511C341.901 180.339 342.95 181.443 343.705 182.861C344.459 184.278 344.827 186.008 344.827 188.089C344.827 189.966 344.386 191.715 343.484 193.353C342.582 194.991 341.312 196.225 339.655 197.016C337.998 197.826 335.955 198.213 333.488 198.213C329.899 198.213 327.156 197.255 325.242 195.341C323.328 193.427 322.168 190.629 321.8 186.966Z" fill="#009E45"/>
<path fill-rule="evenodd" clip-rule="evenodd" d="M0 206.514H344.809V211.797H0V206.514ZM243.568 136.382C238.046 137.357 234.401 139.99 234.401 139.99C234.401 139.99 233.407 141.628 231.456 139.658C229.486 137.689 233.407 135.075 238.322 133.105C243.237 131.154 257.318 132.13 263.209 141.959C269.099 151.771 257.318 152.433 257.318 152.433H8.0993C8.0993 152.433 1.54623 153.74 1.2333 146.211C0.901967 138.683 3.84717 106.267 35.2872 98.7202C66.7272 91.1915 79.8149 101.997 98.8114 104.298C117.808 106.58 121.747 106.267 121.747 106.267C121.747 106.267 122.723 66.3046 127.306 52.2228C131.89 38.1411 150.555 2.78032 197.715 0.148053C244.875 -2.46581 276.959 30.2811 284.819 39.1167C292.679 47.9707 292.035 46.6638 290.065 47.6394C288.096 48.615 288.758 48.9463 286.457 46.6638C284.175 44.3628 246.844 -0.164874 199.022 4.08726C151.218 8.33939 135.166 41.749 131.89 51.8915C128.613 62.0524 125.668 109.857 125.668 109.857C125.668 109.857 113.224 112.158 97.1731 109.525C81.1402 106.911 62.4566 96.1063 36.2628 103.966C16.1066 110.022 10.4002 123.294 8.76197 131.154C7.1237 139.014 6.12969 146.543 6.12969 146.543H257.981C257.374 141.186 249.072 135.406 243.568 136.382ZM174.853 140.836C174.853 140.836 161.121 142.107 153.04 136.787C144.977 131.485 139.934 126.037 139.934 126.037L136.271 128.816C136.271 128.816 145.603 138.057 151.402 140.45C157.402 142.935 168.484 145.199 174.853 142.346V140.836ZM231.345 132.866C231.345 132.866 233.536 109.102 222.565 96.456C212.146 84.4359 202.979 83.1842 196.04 82.043C189.1 80.9017 181.424 81.1594 181.424 81.1594L181.148 85.5956C181.148 85.5956 205.428 82.7977 216.895 97.2107C228.382 111.624 229.578 129.7 229.578 129.7L231.345 132.866ZM350 94.3024C350 94.3024 347.865 71.4218 331.721 60.6719C315.578 49.9219 291.501 54.2293 291.501 54.2293L291.998 57.8923C291.998 57.8923 315.707 52.4437 330.451 63.9484C345.214 75.4715 346.466 93.9342 346.466 93.9342L350 94.3024ZM309.651 80.5151C309.651 80.5151 310.277 74.2014 307.755 71.4218C305.233 68.6423 302.343 66.4886 299.821 66.2309C297.299 65.9732 295.035 65.8628 295.035 66.6175C295.035 67.3722 294.281 69.3602 299.95 70.6671C304.349 71.6611 305.748 77.2386 305.748 77.2386C305.748 77.2386 305.877 80.5151 306.761 81.0306C307.644 81.5276 309.651 80.5151 309.651 80.5151ZM302.343 84.0678C302.343 84.0678 298.551 82.7977 297.042 79.6316C295.532 76.4839 295.661 73.686 293.765 74.0725C291.869 74.4591 290.617 77.4963 291.869 80.2758C293.139 83.0554 295.661 85.0802 297.428 85.3195C299.195 85.5772 299.821 87.2155 301.331 86.4608C302.84 85.7061 302.343 84.0678 302.343 84.0678ZM344.809 105.034C344.735 104.371 346.171 106.322 346.319 107.685C346.392 108.495 345.693 109.304 344.809 110.188C343.852 111.145 341.293 113.538 338.753 115.121C335.035 117.441 331.188 118.932 331.188 118.932C331.188 118.932 335.937 114.311 339.545 111.219C342.637 108.016 344.809 105.034 344.809 105.034ZM339.14 101.96C339.14 101.96 339.545 103.12 334.39 108.771C329.255 114.44 318.56 122.024 318.56 122.024C318.56 122.024 328.334 119.447 334.004 114.311C339.655 109.157 341.717 106.065 341.717 106.065L339.14 101.96Z" fill="#292A29"/>
</svg>
