<?xml version="1.0" encoding="UTF-8" standalone="no"?><!DOCTYPE svg PUBLIC "-//W3C//DTD SVG 1.1//EN" "http://www.w3.org/Graphics/SVG/1.1/DTD/svg11.dtd"><svg width="100%" height="100%" viewBox="0 0 176 43" version="1.1" xmlns="http://www.w3.org/2000/svg" xmlns:xlink="http://www.w3.org/1999/xlink" xml:space="preserve" xmlns:serif="http://www.serif.com/" style="fill-rule:evenodd;clip-rule:evenodd;stroke-linejoin:round;stroke-miterlimit:2;"><path d="M94.145,5.501l-0.687,2.036c-0.811,-2.079 -2.367,-2.577 -3.91,-2.496c-5.44,0.285 -8.959,5.454 -11.625,12.512c-2.441,8.573 -1.96,14.398 3.582,14.613c1.349,0.052 2.851,-0.649 4.203,-1.805l-1.199,3.579c-0.736,2.192 -1.842,6.785 -5.959,6.862l-7.111,0l-0.776,1.906l8.148,0c6.856,0 10.116,-3.631 11.822,-8.638l9.719,-28.536l-6.207,-0.033Zm-2.781,8.338l-4.047,11.924c-0.715,2.133 -2.348,3.676 -3.966,3.676c-3.439,0 0.047,-9.806 0.515,-11.127c0.728,-2.055 3.054,-10.55 6.21,-10.55c2.094,0 2.631,1.669 1.288,6.077Zm31.885,18.545c2.224,0 4.343,-1.01 6.118,-2.612l-0.617,1.888l6.108,0.071l8.963,-26.243l-6.198,0l-6.054,17.879c-0.869,2.571 -2.317,6.036 -5.4,6.058c-2.239,0.016 -1.103,-2.605 -0.272,-5.065l6.365,-18.872l-6.267,0l-6.825,20.113c-1.292,3.821 0.642,6.783 4.079,6.783Zm-21.417,-0.66l5.675,-16.924c0.872,-2.572 3.144,-6.853 5.73,-6.894c1.934,-0.032 1.132,2.542 0.302,5.001l-6.347,18.817l6.268,0l7.11,-20.967c1.095,-3.23 -0.499,-5.867 -4.365,-5.931c-2.223,-0.037 -4.342,1.012 -6.117,2.612l0.617,-1.887l-6.109,-0.07l-8.962,26.243l6.198,0Zm-24.631,7.371l2.004,-5.747l-5.157,0l-2.004,5.747l5.157,0Zm-0.452,-26.293c1.839,-5.464 -0.267,-7.916 -6.668,-7.899c-4.531,0.012 -7.954,2.677 -9.682,7.514l4.292,0c1.4,-4.13 2.482,-5.428 4.862,-5.418c3.642,0.013 2.169,2.431 1.537,4.467l-1.213,3.506c-8.38,0.407 -11.214,0.592 -13.632,6.995c-0.417,1.105 -0.818,2.279 -1.196,3.494l-0.223,1.332c-0.503,3.036 1.632,5.339 5.198,5.251c1.861,-0.045 3.745,-1.022 4.814,-2.036l-0.707,1.762l6.128,0l5.338,-15.538l1.152,-3.43Zm-7.588,4.495l-2.548,7.44c-1.092,3.185 -3.029,4.742 -4.588,4.702c-0.801,-0.02 -1.651,-0.606 -1.453,-1.846l2.981,-8.019c0.798,-1.946 1.803,-2.766 5.22,-2.759c0.267,-0.011 0.506,0.133 0.388,0.482Zm101.6,-12.471c-2.514,0 -4.893,1.292 -6.793,3.268c-0.697,-1.994 -2.236,-3.223 -5.005,-3.268c-2.465,-0.038 -4.31,1.006 -6.029,2.598l0.736,-1.898l-6.21,0.016l-8.988,26.182l6.268,0l5.466,-16.398c1.701,-5.104 4.164,-7.605 5.946,-7.466c2.004,0.154 1.494,1.786 0.388,5.063l-6.347,18.801l6.194,0l5.465,-16.398c0.637,-1.966 1.722,-4.36 3.121,-5.903c0.838,-0.926 1.785,-1.59 2.826,-1.563c2.236,0.057 1.247,2.526 0.378,5.063l-6.429,18.801l6.265,0l7.11,-20.953c1.164,-3.435 -0.799,-5.945 -4.362,-5.945Zm-162.668,0.504c-1.03,0 -1.867,0.835 -1.867,1.866c0,1.031 0.837,1.868 1.867,1.868c0.544,0 14.718,0.006 14.718,0.006l0.62,1.594c0,0 -8.408,-0.003 -8.93,-0.003c-1.037,0 -1.88,0.84 -1.88,1.88c0,1.037 0.843,1.88 1.88,1.88c0.515,0 12.074,-0.014 12.074,-0.014l-5.851,17.317l6.268,0l5.436,-16.311c1.772,-5.331 4.06,-7.568 5.975,-7.553c2.332,0.017 1.072,3.011 0.499,4.703l-6.461,19.161l6.194,0l5.469,-16.398c1.101,-3.404 3.277,-7.43 5.946,-7.466c2.456,-0.036 0.914,3.504 0.5,4.713l-6.551,19.151l6.268,0l7.129,-21.027c1.213,-3.514 -0.909,-5.871 -4.387,-5.871c-2.51,0 -4.889,1.292 -6.793,3.268c-0.696,-1.994 -2.233,-3.223 -5.004,-3.268c-1.781,-0.027 -3.334,0.582 -4.782,1.444c-1.797,-3.735 -6.209,-6.27 -10.314,-6.27l-24.242,0c-1.037,0 -1.874,0.836 -1.874,1.874c0,1.034 0.837,1.872 1.874,1.872c0.592,0 18.85,-0.005 18.85,-0.005l0.639,1.592c0,0 -12.827,-0.003 -13.27,-0.003" style="fill:#b6004b;"/></svg>